<?xml version="1.0" encoding="UTF-8"?>
<svg id="Layer_2" data-name="Layer 2" xmlns="http://www.w3.org/2000/svg" viewBox="0 0 488.69 161.72">
  <defs>
    <style>
      .cls-1 {
        fill: #fff;
      }

      .cls-1, .cls-2 {
        stroke: #f69fb2;
        stroke-miterlimit: 10;
        stroke-width: 11.17px;
      }

      .cls-2 {
        fill: none;
      }
    </style>
  </defs>
  <g id="_レイヤー_1" data-name="レイヤー 1">
    <g>
      <path class="cls-2" d="M0,98.65h195.46c25.14,0,18.16,18.81,51.65,18.81s29.35-18.81,55.88-18.81h185.69"/>
      <path class="cls-1" d="M108.61,113.59c0,7.31-2.93,30.69-8.05,37.27-5.11,6.58-12.22,5.88-16.07-2.92-4.08-9.33-3.56-19.78-4.66-29.69-1.25-11.44-2.21-22.08-8.76-31.89-8.03-12.02-17.27-23.22-17.27-38.52,0-18.15,10.22-35.98,29.38-41,8.53-2.23,16.39-1.49,23.79,2.45,4.96,2.64,14.06,9.32,14.06,9.32,0,0,9.55-6.11,10.59-6.65,3.65-1.93,9.57-4.47,13.67-5.08,9.34-1.41,14.17-.14,21.49,3.21,19.22,8.82,22.49,36.74,16.12,54.67-2.44,6.85-6.15,13.99-10.33,19.94-4.06,5.8-8.69,11.48-9.35,18.81-.68,7.58-1.36,15.17-2.4,22.71-1.18,8.55-3.76,28.17-14.94,29.76-5.12.73-8.77-.73-10.96-8.77-3.05-11.21-2.35-22.9-3.87-34.32-.94-7.02-2.43-15.25-12.21-13.47-8.03,1.46-10.22,6.87-10.22,14.18Z"/>
      <path class="cls-1" d="M357.64,113.59c0,7.31-2.94,30.69-8.05,37.27-5.11,6.58-12.22,5.88-16.07-2.92-4.09-9.33-3.56-19.78-4.66-29.69-1.26-11.44-2.21-22.08-8.77-31.89-8.02-12.02-17.27-23.22-17.27-38.52,0-18.15,10.22-35.98,29.38-41,8.52-2.23,16.38-1.49,23.79,2.45,4.96,2.64,14.05,9.32,14.05,9.32,0,0,9.55-6.11,10.59-6.65,3.66-1.93,9.58-4.47,13.67-5.08,9.35-1.41,14.17-.14,21.5,3.21,19.22,8.82,22.49,36.74,16.11,54.67-2.43,6.85-6.15,13.99-10.33,19.94-4.06,5.8-8.7,11.48-9.35,18.81-.69,7.58-1.36,15.17-2.4,22.71-1.19,8.55-3.76,28.17-14.95,29.76-5.12.73-8.77-.73-10.97-8.77-3.06-11.21-2.35-22.9-3.87-34.32-.94-7.02-2.44-15.25-12.21-13.47-8.04,1.46-10.22,6.87-10.22,14.18Z"/>
    </g>
  </g>
</svg>