<?xml version="1.0" encoding="UTF-8"?>
<svg id="Layer_2" data-name="Layer 2" xmlns="http://www.w3.org/2000/svg" xmlns:xlink="http://www.w3.org/1999/xlink" viewBox="0 0 198.35 224.57">
  <defs>
    <style>
      .cls-1, .cls-2 {
        fill: #fff;
      }

      .cls-2, .cls-3, .cls-4 {
        stroke: #f69fb2;
        stroke-miterlimit: 10;
      }

      .cls-2, .cls-4 {
        stroke-width: 5.59px;
      }

      .cls-3 {
        stroke-width: 11.17px;
      }

      .cls-3, .cls-4 {
        fill: none;
      }

      .cls-5 {
        fill: #f69fb2;
      }

      .cls-6 {
        clip-path: url(#clippath);
      }
    </style>
    <clipPath id="clippath">
      <path class="cls-2" d="M83.27,158.67c0,10.36-4.16,43.5-11.4,52.82-7.24,9.32-17.32,8.34-22.78-4.14-5.79-13.22-5.05-28.03-6.6-42.09-1.78-16.22-3.14-31.3-12.42-45.21-11.38-17.04-24.48-32.91-24.48-54.59,0-25.72,14.49-51,41.64-58.11,12.09-3.16,23.23-2.12,33.72,3.48,7.03,3.74,19.92,13.21,19.92,13.21,0,0,13.53-8.66,15.01-9.43,5.18-2.73,13.57-6.33,19.37-7.2,13.26-2.01,20.1-.2,30.47,4.55,27.24,12.5,31.88,52.08,22.85,77.49-3.46,9.72-8.73,19.82-14.64,28.27-5.76,8.22-12.33,16.27-13.26,26.66-.97,10.74-1.92,21.5-3.4,32.19-1.69,12.12-5.33,39.92-21.18,42.19-7.25,1.03-12.43-1.04-15.54-12.43-4.33-15.88-3.32-32.46-5.49-48.65-1.34-9.95-3.45-25.33-17.3-22.81-11.39,2.06-14.49,13.46-14.49,23.82Z"/>
    </clipPath>
  </defs>
  <g id="_レイヤー_1" data-name="レイヤー 1">
    <g>
      <path class="cls-3" d="M83.27,158.67c0,10.36-4.16,43.5-11.4,52.82-7.24,9.32-17.32,8.34-22.78-4.14-5.79-13.22-5.05-28.03-6.6-42.09-1.78-16.22-3.14-31.3-12.42-45.21-11.38-17.04-24.48-32.91-24.48-54.59,0-25.72,14.49-51,41.64-58.11,12.09-3.16,23.23-2.12,33.72,3.48,7.03,3.74,19.92,13.21,19.92,13.21,0,0,13.53-8.66,15.01-9.43,5.18-2.73,13.57-6.33,19.37-7.2,13.26-2.01,20.1-.2,30.47,4.55,27.24,12.5,31.88,52.08,22.85,77.49-3.46,9.72-8.73,19.82-14.64,28.27-5.76,8.22-12.33,16.27-13.26,26.66-.97,10.74-1.92,21.5-3.4,32.19-1.69,12.12-5.33,39.92-21.18,42.19-7.25,1.03-12.43-1.04-15.54-12.43-4.33-15.88-3.32-32.46-5.49-48.65-1.34-9.95-3.45-25.33-17.3-22.81-11.39,2.06-14.49,13.46-14.49,23.82Z"/>
      <g>
        <path class="cls-1" d="M83.27,158.67c0,10.36-4.16,43.5-11.4,52.82-7.24,9.32-17.32,8.34-22.78-4.14-5.79-13.22-5.05-28.03-6.6-42.09-1.78-16.22-3.14-31.3-12.42-45.21-11.38-17.04-24.48-32.91-24.48-54.59,0-25.72,14.49-51,41.64-58.11,12.09-3.16,23.23-2.12,33.72,3.48,7.03,3.74,19.92,13.21,19.92,13.21,0,0,13.53-8.66,15.01-9.43,5.18-2.73,13.57-6.33,19.37-7.2,13.26-2.01,20.1-.2,30.47,4.55,27.24,12.5,31.88,52.08,22.85,77.49-3.46,9.72-8.73,19.82-14.64,28.27-5.76,8.22-12.33,16.27-13.26,26.66-.97,10.74-1.92,21.5-3.4,32.19-1.69,12.12-5.33,39.92-21.18,42.19-7.25,1.03-12.43-1.04-15.54-12.43-4.33-15.88-3.32-32.46-5.49-48.65-1.34-9.95-3.45-25.33-17.3-22.81-11.39,2.06-14.49,13.46-14.49,23.82Z"/>
        <g class="cls-6">
          <path class="cls-5" d="M78.21,48.36c0,21.59-17.5,39.1-39.1,39.1S0,69.96,0,48.36,17.52,9.26,39.11,9.26s39.1,17.51,39.1,39.1Z"/>
          <circle class="cls-5" cx="161.15" cy="98.21" r="30.72" transform="translate(7.28 207.48) rotate(-66.74)"/>
        </g>
        <path class="cls-4" d="M83.27,158.67c0,10.36-4.16,43.5-11.4,52.82-7.24,9.32-17.32,8.34-22.78-4.14-5.79-13.22-5.05-28.03-6.6-42.09-1.78-16.22-3.14-31.3-12.42-45.21-11.38-17.04-24.48-32.91-24.48-54.59,0-25.72,14.49-51,41.64-58.11,12.09-3.16,23.23-2.12,33.72,3.48,7.03,3.74,19.92,13.21,19.92,13.21,0,0,13.53-8.66,15.01-9.43,5.18-2.73,13.57-6.33,19.37-7.2,13.26-2.01,20.1-.2,30.47,4.55,27.24,12.5,31.88,52.08,22.85,77.49-3.46,9.72-8.73,19.82-14.64,28.27-5.76,8.22-12.33,16.27-13.26,26.66-.97,10.74-1.92,21.5-3.4,32.19-1.69,12.12-5.33,39.92-21.18,42.19-7.25,1.03-12.43-1.04-15.54-12.43-4.33-15.88-3.32-32.46-5.49-48.65-1.34-9.95-3.45-25.33-17.3-22.81-11.39,2.06-14.49,13.46-14.49,23.82Z"/>
      </g>
    </g>
  </g>
</svg>