<?xml version="1.0" encoding="UTF-8"?>
<svg id="Layer_2" data-name="Layer 2" xmlns="http://www.w3.org/2000/svg" viewBox="0 0 171.16 240.66">
  <defs>
    <style>
      .cls-1, .cls-2 {
        stroke-miterlimit: 10;
      }

      .cls-1, .cls-2, .cls-3 {
        stroke: #f69fb2;
        stroke-width: 11.17px;
      }

      .cls-1, .cls-3 {
        fill: #fff;
      }

      .cls-2 {
        fill: none;
      }

      .cls-3 {
        stroke-linejoin: round;
      }
    </style>
  </defs>
  <g id="_レイヤー_1" data-name="レイヤー 1">
    <g>
      <path class="cls-1" d="M149.48,101.43c5.05-7.22,9.56-15.86,12.51-24.16,7.71-21.73,3.76-55.55-19.53-66.24-8.87-4.07-14.72-5.61-26.05-3.89-4.94.75-12.12,3.82-16.55,6.15-1.25.66-12.82,8.06-12.82,8.06,0,0-11.03-8.09-17.03-11.29-8.96-4.78-18.49-5.67-28.83-2.97C17.97,13.17,5.59,34.78,5.59,56.76c0,18.53,11.19,32.1,20.92,46.66,6.85,10.25,8.64,21.24,9.99,32.94h100.51c.4-4.05.77-8.1,1.13-12.15.81-8.88,6.43-15.76,11.34-22.78Z"/>
      <g>
        <polygon class="cls-1" points="114.35 235.08 59.53 235.08 54.54 224.32 52.55 151.07 121.34 151.07 119.34 224.32 114.35 235.08"/>
        <polygon class="cls-3" points="139.46 153.04 34.42 153.04 27.68 126.67 143.49 125.64 139.46 153.04"/>
        <line class="cls-2" x1="118.32" y1="170.19" x2="60.05" y2="170.19"/>
        <line class="cls-2" x1="117.69" y1="185.63" x2="66.88" y2="185.63"/>
        <line class="cls-2" x1="117.69" y1="201.07" x2="74.33" y2="201.07"/>
        <line class="cls-2" x1="117.69" y1="216.51" x2="81.8" y2="216.51"/>
      </g>
    </g>
  </g>
</svg>