<?xml version="1.0" encoding="UTF-8"?>
<svg id="Layer_2" data-name="Layer 2" xmlns="http://www.w3.org/2000/svg" viewBox="0 0 215.84 251.57">
  <defs>
    <style>
      .cls-1 {
        fill: #fff;
        stroke: #f69fb2;
        stroke-miterlimit: 10;
        stroke-width: 11.17px;
      }

      .cls-2 {
        fill: #f69fb2;
      }
    </style>
  </defs>
  <g id="_レイヤー_1" data-name="レイヤー 1">
    <g>
      <path class="cls-2" d="M212.33,194.91c-.46-2.3-.88-4.53-1.22-6.64-4.45-27.94-14.14-50.99-44.65-56.95l-44.92-8.78-57.25,14.96c-6.7,0-15.08,4.9-18.58,10.82,0,0-12.28,20.75-14.49,46.65-1.44,16.86-8.17,40.89,12.58,50.79,9.29,4.44,24.34,5.03,33.44,5.32,29.42.95,54.83.26,84.27-.37,15.56-.33,38.15,2.69,48.87-11.61,8.98-11.99,4.84-29.72,1.96-44.22Z"/>
      <path class="cls-1" d="M107.07,169.79c2.68,10,7.24,43.09,2.66,53.97-4.59,10.88-14.58,12.54-23.08,1.9-9.01-11.27-12.13-25.77-17.27-38.94-5.92-15.2-11.13-29.42-23.7-40.46-15.4-13.51-32.16-25.45-37.77-46.39-6.66-24.85.8-53.02,25.18-66.91,10.86-6.18,21.89-8.06,33.47-5.37,7.76,1.79,22.66,7.6,22.66,7.6,0,0,10.83-11.87,12.06-12.99,4.3-3.97,11.48-9.62,16.85-11.97,12.29-5.37,19.36-5.4,30.61-3.49,29.56,5.02,44.27,42.05,42.13,68.94-.82,10.28-3.31,21.41-6.82,31.09-3.43,9.43-7.7,18.91-5.91,29.18,1.85,10.62,3.71,21.26,5.05,31.97,1.51,12.15,5.18,39.94-9.55,46.23-6.73,2.87-12.27,2.21-18.23-7.99-8.3-14.22-11.61-30.49-17.89-45.57-3.87-9.26-9.89-23.57-22.61-17.56-10.47,4.94-10.51,16.75-7.83,26.76Z"/>
    </g>
  </g>
</svg>