<?xml version="1.0" encoding="UTF-8"?>
<svg id="Layer_2" data-name="Layer 2" xmlns="http://www.w3.org/2000/svg" viewBox="0 0 231.55 224.57">
  <defs>
    <style>
      .cls-1 {
        fill: #fff;
        stroke: #f69fb2;
        stroke-miterlimit: 10;
        stroke-width: 11.17px;
      }

      .cls-2 {
        fill: #f69fb2;
      }
    </style>
  </defs>
  <g id="_レイヤー_1" data-name="レイヤー 1">
    <g>
      <path class="cls-1" d="M98.35,158.67c0,10.36-4.16,43.5-11.4,52.82-7.24,9.32-17.32,8.34-22.78-4.14-5.79-13.22-5.05-28.03-6.6-42.09-1.78-16.22-3.14-31.3-12.42-45.21-11.38-17.04-24.48-32.91-24.48-54.59,0-25.72,14.49-51,41.64-58.11,12.09-3.16,23.23-2.12,33.72,3.48,7.03,3.74,19.92,13.21,19.92,13.21,0,0,13.53-8.66,15.01-9.43,5.18-2.73,13.57-6.33,19.37-7.2,13.26-2.01,20.1-.2,30.47,4.55,27.24,12.5,31.88,52.08,22.85,77.49-3.46,9.72-8.73,19.82-14.64,28.27-5.76,8.22-12.33,16.27-13.26,26.66-.97,10.74-1.92,21.5-3.4,32.19-1.69,12.12-5.33,39.92-21.18,42.19-7.25,1.03-12.43-1.04-15.54-12.43-4.33-15.88-3.32-32.46-5.49-48.65-1.34-9.95-3.45-25.33-17.3-22.81-11.39,2.06-14.49,13.46-14.49,23.82Z"/>
      <path class="cls-2" d="M161.99,68.24c0-20.76-9.97-30.73-30.72-30.73,20.75,0,30.72-9.97,30.72-30.73,0,20.76,9.97,30.73,30.72,30.73-20.75,0-30.72,9.97-30.72,30.73Z"/>
      <path class="cls-2" d="M48.47,99.22c0-23.55-11.3-34.86-34.85-34.86,23.55,0,34.85-11.31,34.85-34.85,0,23.55,11.31,34.85,34.84,34.85-23.53,0-34.84,11.31-34.84,34.86Z"/>
      <path class="cls-2" d="M34.29,209.59c0-23.17-11.12-34.3-34.29-34.3,23.17,0,34.29-11.12,34.29-34.3,0,23.17,11.13,34.3,34.29,34.3-23.16,0-34.29,11.13-34.29,34.3Z"/>
      <path class="cls-2" d="M199.34,177.99c0-21.76-10.45-32.22-32.21-32.22,21.76,0,32.21-10.45,32.21-32.2,0,21.76,10.46,32.2,32.21,32.2-21.75,0-32.21,10.45-32.21,32.22Z"/>
    </g>
  </g>
</svg>