<?xml version="1.0" encoding="UTF-8"?>
<svg id="Layer_2" data-name="Layer 2" xmlns="http://www.w3.org/2000/svg" viewBox="0 0 241.93 228.7">
  <defs>
    <style>
      .cls-1, .cls-2 {
        fill: #fff;
      }

      .cls-3, .cls-4 {
        fill: none;
        stroke-miterlimit: 10;
      }

      .cls-3, .cls-4, .cls-2 {
        stroke: #f69fb2;
        stroke-width: 11.17px;
      }

      .cls-4 {
        stroke-linecap: round;
      }

      .cls-2 {
        stroke-linejoin: round;
      }

      .cls-5 {
        fill: #f69fb2;
      }
    </style>
  </defs>
  <g id="_レイヤー_1" data-name="レイヤー 1">
    <g>
      <path class="cls-2" d="M191.8,201.92c-4.03,10.38-16.24,20-40.11,21.1-19.66.91-28.53-5.22-29.17-14.25-.66-9.34,1.98-14.42,13.36-14.54,11.37-.12,21.75,2.87,21.75,2.87,0,0,1.96-10.36,8.12-14.56,3.34-2.28,13.72-7.26,23.1-.78,5.56,3.84,4.78,15.42,2.96,20.16Z"/>
      <path class="cls-2" d="M50.12,201.92c4.03,10.38,16.23,20,40.12,21.1,19.65.91,28.52-5.22,29.16-14.25.66-9.34-1.98-14.42-13.36-14.54-11.37-.12-21.74,2.87-21.74,2.87,0,0-1.96-10.36-8.13-14.56-3.34-2.28-13.71-7.26-23.1-.78-5.56,3.84-4.78,15.42-2.95,20.16Z"/>
      <g>
        <path class="cls-1" d="M216.17,90.54c-.56,0-1.11.04-1.66.08C210.02,42.92,169.85,5.59,120.97,5.59S31.92,42.92,27.42,90.63c-.55-.04-1.1-.08-1.66-.08-11.14,0-20.17,9.03-20.17,20.18s9.03,20.18,20.17,20.18c2.18,0,4.27-.36,6.24-1,12.62,37.01,47.68,63.63,88.96,63.63s76.34-26.62,88.96-63.63c1.97.64,4.06,1,6.24,1,11.14,0,20.17-9.03,20.17-20.18s-9.03-20.18-20.17-20.18Z"/>
        <path class="cls-3" d="M216.17,90.54c-.56,0-1.11.04-1.66.08C210.02,42.92,169.85,5.59,120.97,5.59S31.92,42.92,27.42,90.63c-.55-.04-1.1-.08-1.66-.08-11.14,0-20.17,9.03-20.17,20.18s9.03,20.18,20.17,20.18c2.18,0,4.27-.36,6.24-1,12.62,37.01,47.68,63.63,88.96,63.63s76.34-26.62,88.96-63.63c1.97.64,4.06,1,6.24,1,11.14,0,20.17-9.03,20.17-20.18s-9.03-20.18-20.17-20.18Z"/>
      </g>
      <path class="cls-5" d="M65.28,101.56c0-5.49,4.45-9.95,9.94-9.95s9.94,4.45,9.94,9.95-4.46,9.94-9.94,9.94-9.94-4.45-9.94-9.94Z"/>
      <path class="cls-5" d="M156.99,101.56c0-5.49,4.45-9.95,9.95-9.95s9.94,4.45,9.94,9.95-4.45,9.94-9.94,9.94-9.95-4.45-9.95-9.94Z"/>
      <path class="cls-4" d="M84.4,138.46c15.19,29,64.86,29.47,77.66-.28"/>
      <path class="cls-4" d="M101.82,7.33c-14.12,16.69-20.06,31.29-23.11,52.83"/>
      <path class="cls-4" d="M120.97,5.59c-2.64,17.19-2.33,34.36,1.76,51.28"/>
      <path class="cls-4" d="M145.85,11.74c8.89,13.61,17.15,28.49,17.61,45.13"/>
    </g>
  </g>
</svg>