<?xml version="1.0" encoding="UTF-8"?>
<svg id="Layer_2" data-name="Layer 2" xmlns="http://www.w3.org/2000/svg" xmlns:xlink="http://www.w3.org/1999/xlink" viewBox="0 0 290.96 154.53">
  <defs>
    <style>
      .cls-1, .cls-2 {
        fill: #fff;
      }

      .cls-2, .cls-3, .cls-4 {
        stroke: #f69fb2;
        stroke-miterlimit: 10;
      }

      .cls-2, .cls-4 {
        stroke-width: 4.7px;
      }

      .cls-3 {
        stroke-width: 8.69px;
      }

      .cls-3, .cls-4 {
        fill: none;
      }

      .cls-5 {
        fill: #f69fb2;
      }

      .cls-6 {
        clip-path: url(#clippath);
      }
    </style>
    <clipPath id="clippath">
      <path class="cls-2" d="M282.28,103.21s-42.09,17.43-136.8,17.43S8.68,103.21,8.68,103.21V37.02s30.95-4.36,136.8-4.36c88.92,0,136.8,4.36,136.8,4.36v66.2Z"/>
    </clipPath>
  </defs>
  <g id="_レイヤー_1" data-name="レイヤー 1">
    <g>
      <g>
        <path class="cls-5" d="M286.61,118.14c0,4.97-3.46,11.17-7.69,13.77,0,0-29.69,18.28-134.09,18.28S11.96,132.03,11.96,132.03c-4.19-2.67-7.62-8.92-7.62-13.89V22.09c0-4.97,4.02-9.64,8.93-10.38,0,0,49.05-7.37,132.2-7.37s132.2,7.37,132.2,7.37c4.91.74,8.93,5.41,8.93,10.38v96.04Z"/>
        <path class="cls-3" d="M286.61,118.14c0,4.97-3.46,11.17-7.69,13.77,0,0-29.69,18.28-134.09,18.28S11.96,132.03,11.96,132.03c-4.19-2.67-7.62-8.92-7.62-13.89V22.09c0-4.97,4.02-9.64,8.93-10.38,0,0,49.05-7.37,132.2-7.37s132.2,7.37,132.2,7.37c4.91.74,8.93,5.41,8.93,10.38v96.04Z"/>
      </g>
      <g>
        <path class="cls-1" d="M282.28,103.21s-42.09,17.43-136.8,17.43S8.68,103.21,8.68,103.21V37.02s30.95-4.36,136.8-4.36c88.92,0,136.8,4.36,136.8,4.36v66.2Z"/>
        <g class="cls-6">
          <line class="cls-3" x1="251.34" y1="15.23" x2="251.34" y2="138.06"/>
          <line class="cls-3" x1="216.06" y1="15.23" x2="216.06" y2="138.06"/>
          <line class="cls-3" x1="180.77" y1="15.23" x2="180.77" y2="138.06"/>
          <line class="cls-3" x1="145.48" y1="15.23" x2="145.48" y2="138.06"/>
          <line class="cls-3" x1="110.2" y1="15.23" x2="110.2" y2="138.06"/>
          <line class="cls-3" x1="74.91" y1="15.23" x2="74.91" y2="138.06"/>
          <line class="cls-3" x1="39.63" y1="15.23" x2="39.63" y2="138.06"/>
        </g>
        <path class="cls-4" d="M282.28,103.21s-42.09,17.43-136.8,17.43S8.68,103.21,8.68,103.21V37.02s30.95-4.36,136.8-4.36c88.92,0,136.8,4.36,136.8,4.36v66.2Z"/>
      </g>
      <path class="cls-3" d="M4.35,70.65s70.56,9.41,141.13,9.41,141.13-9.41,141.13-9.41"/>
    </g>
  </g>
</svg>