<?xml version="1.0" encoding="UTF-8"?>
<svg id="Layer_2" data-name="Layer 2" xmlns="http://www.w3.org/2000/svg" viewBox="0 0 198.35 224.57">
  <defs>
    <style>
      .cls-1 {
        fill: #fac7d0;
      }

      .cls-2 {
        fill: #fff;
        stroke: #f69fb2;
        stroke-miterlimit: 10;
        stroke-width: 11.17px;
      }
    </style>
  </defs>
  <g id="_レイヤー_1" data-name="レイヤー 1">
    <g>
      <path class="cls-2" d="M83.27,158.67c0,10.36-4.16,43.5-11.4,52.82-7.24,9.32-17.32,8.34-22.78-4.14-5.79-13.22-5.05-28.03-6.6-42.09-1.78-16.22-3.14-31.3-12.42-45.21-11.38-17.04-24.48-32.91-24.48-54.59,0-25.72,14.49-51,41.64-58.11,12.09-3.16,23.23-2.12,33.72,3.48,7.03,3.74,19.92,13.21,19.92,13.21,0,0,13.53-8.66,15.01-9.43,5.18-2.73,13.57-6.33,19.37-7.2,13.26-2.01,20.1-.2,30.47,4.55,27.24,12.5,31.88,52.08,22.85,77.49-3.46,9.72-8.73,19.82-14.64,28.27-5.76,8.22-12.33,16.27-13.26,26.66-.97,10.74-1.92,21.5-3.4,32.19-1.69,12.12-5.33,39.92-21.18,42.19-7.25,1.03-12.43-1.04-15.54-12.43-4.33-15.88-3.32-32.46-5.49-48.65-1.34-9.95-3.45-25.33-17.3-22.81-11.39,2.06-14.49,13.46-14.49,23.82Z"/>
      <path class="cls-1" d="M143.98,142.89c-2.07,8.38-.07.71-.07.71-.91,10.14-1.85,20.62-3.24,30.67-1.67,12.05-3.46,19.05-5.01,23.12-1.4-7.04-1.86-14.6-2.33-22.52-.38-6.28-.77-12.78-1.66-19.42-1.25-9.31-5.06-37.62-31.03-37.62-1.91,0-3.89.19-5.88.55-17.69,3.21-28.25,18.27-28.25,40.3,0,8.07-2.17,22.99-4.67,33.13-.97-5.12-1.34-10.74-1.73-16.55-.26-3.97-.53-7.92-.96-11.82l-.2-1.76c-.85-7.76-1.71-15.65-3.5-23.55,0,0-2.26-31.02-7-42.89-3.57-8.93,1.79-16.07,9.82-16.07s25.89,8.93,41.96,8.93,32.98-1.45,37.49-4.47c10.71-7.14,20.16-8.39,23.21,0,3.57,9.82-10.71,33.92-16.96,59.26Z"/>
    </g>
  </g>
</svg>